<?xml version="1.0" encoding="UTF-8"?>
<svg id="logosandtypes_com" data-name="logosandtypes com" xmlns="http://www.w3.org/2000/svg" xmlns:xlink="http://www.w3.org/1999/xlink" viewBox="0 0 150 150">
  <defs>
    <style>
      .cls-1 {
        fill: url(#linear-gradient-2);
      }

      .cls-2 {
        fill: none;
      }

      .cls-3 {
        fill: url(#linear-gradient);
      }
    </style>
    <linearGradient id="linear-gradient" x1="43.66" y1="150.94" x2="118.1" y2="49.84" gradientTransform="translate(0 149.49) scale(1 -1)" gradientUnits="userSpaceOnUse">
      <stop offset="0" stop-color="#41d1ff"/>
      <stop offset="1" stop-color="#bd34fe"/>
    </linearGradient>
    <linearGradient id="linear-gradient-2" x1="78.77" y1="135.58" x2="92.23" y2="43.2" gradientTransform="translate(0 149.49) scale(1 -1)" gradientUnits="userSpaceOnUse">
      <stop offset="0" stop-color="#ffea83"/>
      <stop offset=".08" stop-color="#ffdd35"/>
      <stop offset="1" stop-color="#ffa800"/>
    </linearGradient>
  </defs>
  <g id="Layer_3" data-name="Layer 3">
    <path id="Layer_3-2" data-name="Layer 3" class="cls-2" d="M0,0H150V150H0V0Z"/>
  </g>
  <path class="cls-3" d="M138.77,31.36l-59.81,106.95c-1.23,2.21-4.41,2.22-5.66,.02L12.31,31.37c-1.37-2.39,.68-5.3,3.4-4.81l59.88,10.7c.38,.07,.77,.07,1.15,0l58.62-10.69c2.7-.49,4.76,2.39,3.42,4.78Z"/>
  <path class="cls-1" d="M104.1,12.52l-44.26,8.67c-.73,.14-1.27,.76-1.31,1.5l-2.72,45.98c-.06,1.08,.93,1.92,1.99,1.68l12.32-2.84c1.15-.27,2.19,.75,1.96,1.91l-3.66,17.93c-.25,1.21,.89,2.24,2.06,1.88l7.61-2.31c1.18-.36,2.31,.68,2.06,1.88l-5.82,28.16c-.36,1.76,1.98,2.72,2.96,1.21l.65-1.01L114.01,45.19c.6-1.21-.44-2.58-1.76-2.32l-12.68,2.45c-1.19,.23-2.21-.88-1.87-2.05l8.28-28.7c.34-1.17-.68-2.28-1.87-2.05Z"/>
</svg>